<svg width="560" height="560" viewBox="0 0 560 560" fill="none" xmlns="http://www.w3.org/2000/svg">
<path d="M296.816 349.655C342.633 347.331 384.608 346.278 391.375 350.072C394.861 352.032 400.285 377.792 402.777 395.021C416.85 393.341 434.534 391.795 452.202 390.591C449.579 377.336 447.96 369.031 442.008 356.224C441.106 354.284 443.576 353.5 444.581 355.272C450.545 366.191 454.551 378.071 456.416 390.373C480.337 388.802 503.938 387.853 518.73 387.853C517.05 373.377 507.746 340.018 491.066 322.912C478.209 309.727 453.266 297.992 431.191 295.215C430.847 298.274 429.667 301.18 427.78 303.612C425.893 306.045 423.373 307.911 420.495 309.005C408.702 313.639 387.175 314.857 367.973 304.309C347.715 310.088 310.59 332.136 296.816 349.655Z" fill="#4C2884"/>
<path d="M543.787 452.704C422.986 454.974 302.732 454.526 181.996 454.664C179.554 454.664 179.003 458.48 181.528 458.525C301.993 460.751 423.894 458.13 544.338 456.654C546.912 456.632 546.346 452.656 543.787 452.704Z" fill="#4C2884"/>
<path d="M246.349 214.023C258.751 214.256 319.189 213.13 325.615 212.853C327.552 212.769 327.502 209.426 325.615 209.426C316.988 209.426 260.232 210.521 246.349 211.249C246.014 211.294 245.706 211.46 245.483 211.715C245.26 211.97 245.137 212.297 245.137 212.636C245.137 212.975 245.26 213.302 245.483 213.557C245.706 213.812 246.014 213.978 246.349 214.023Z" fill="#4C2884"/>
<path d="M196.833 198.541C195.931 199.012 180.338 217.755 187.523 215.526C188.542 215.21 198.723 202.31 199.224 199.997C199.284 199.698 199.251 199.387 199.128 199.107C199.005 198.827 198.799 198.591 198.538 198.432C198.277 198.273 197.973 198.198 197.668 198.218C197.363 198.237 197.072 198.35 196.833 198.541Z" fill="#4C2884"/>
<path d="M162.863 155.959C167.878 156.194 269.991 155.939 276.078 155.34C276.943 155.225 277.734 154.794 278.298 154.129C278.863 153.465 279.161 152.614 279.134 151.742C279.107 150.871 278.757 150.04 278.153 149.412C277.549 148.783 276.733 148.401 275.863 148.34C247.446 148.693 188.371 148.838 163.023 149.393C159.22 149.479 158.901 155.779 162.863 155.959Z" fill="#4C2884"/>
<path d="M305.795 263.721C299.223 263.721 249.258 263.161 245.718 264.172C244.514 264.519 244.038 266.468 245.483 266.88C249.258 267.963 298.963 267.414 305.826 267.414C312.689 267.414 319.35 267.661 326.07 267.414C328.125 267.339 327.974 263.895 325.935 263.805C319.249 263.508 312.495 263.721 305.795 263.721Z" fill="#4C2884"/>
<path d="M244.931 289.891C244.507 290.017 244.149 290.305 243.937 290.693C243.724 291.081 243.673 291.537 243.794 291.963C244.371 293.923 241.781 293.251 326.937 294.671C327.407 294.623 327.843 294.402 328.159 294.052C328.476 293.701 328.651 293.246 328.651 292.774C328.651 292.301 328.476 291.846 328.159 291.495C327.843 291.145 327.407 290.924 326.937 290.877C245.245 289.558 250.315 289.474 244.931 289.891Z" fill="#4C2884"/>
<path d="M325.117 241.329C325.572 241.299 326 241.1 326.317 240.771C326.634 240.443 326.818 240.008 326.832 239.551C326.846 239.095 326.691 238.65 326.395 238.302C326.099 237.954 325.684 237.729 325.231 237.67C313.079 237.334 256.531 236.863 246.271 238.907C244.591 239.24 244.967 241.688 246.571 241.83C255.248 242.612 268.515 239.697 325.117 241.329Z" fill="#4C2884"/>
<path d="M399.809 191.59C399.96 167.471 401.08 137.382 399.056 113.98C399 113.628 398.816 113.31 398.54 113.086C398.263 112.862 397.913 112.749 397.558 112.768C397.203 112.786 396.867 112.936 396.616 113.188C396.364 113.44 396.215 113.776 396.197 114.131C395.539 125.359 396.158 177.529 396.197 191.859C396.202 194.214 399.795 193.948 399.809 191.59Z" fill="#4C2884"/>
<path d="M188.5 303.33C191.97 307.131 195.659 310.726 199.549 314.096C201.229 315.678 203.816 313.156 202.125 311.576C198.499 307.929 194.688 304.471 190.706 301.216C189.494 300.441 187.565 302.028 188.5 303.33Z" fill="#4C2884"/>
<path d="M33.3232 113.983C33.3232 111.877 30.008 111.494 29.98 113.65C28.8768 202.847 30.3496 306.595 34.6112 395.33C34.7288 397.788 38.5312 397.186 38.4052 394.745C33.9028 300.88 33.1944 207.926 33.3232 113.983Z" fill="#4C2884"/>
<path d="M75.4524 313.011C74.5116 314.411 76.6928 316.192 77.7932 314.884C79.2128 313.204 87.4448 303.664 87.0332 301.612C85.8992 296.174 77.0596 310.634 75.4524 313.011Z" fill="#4C2884"/>
<path d="M137.046 267.757C135.61 267.491 126.499 275.577 124.659 277.333C107.459 266.085 109.17 268.855 109.382 275.653C109.447 280.303 109.771 284.946 110.351 289.561C110.561 291.019 112.779 290.765 112.871 289.345C113.221 284.145 112.552 278.963 112.468 273.766C127.613 283.006 122.932 282.726 137.074 271.139C138.754 272.996 146.754 280.78 149.176 280.486C151.136 280.242 157.736 271.375 159.306 269.485C159.306 273.497 159.435 284.949 160.625 288.191C161.241 289.871 162.865 289.278 162.949 287.606C163.156 284.045 162.725 275.603 162.734 271.492C162.734 266.811 162.72 265.612 160.76 262.812C156.504 256.731 145.724 241.832 139.146 233.745C133.353 226.619 133.098 226.465 129.033 232.76C122.769 242.473 112.255 261.32 110.648 264.904C109.968 266.413 112.294 267.124 113.104 266.007C115.797 262.286 121.896 251.346 124.704 246.533C131.018 246.785 137.341 246.679 143.643 246.214C148.843 252.374 153.757 258.735 158.483 265.254L148.84 276.955C147.527 275.913 138.5 268.026 137.046 267.757Z" fill="#4C2884"/>
<path d="M185.29 393.116C170.246 392.276 47.7374 392.934 42.9578 393.676C42.6044 393.79 42.2987 394.018 42.0886 394.324C41.8785 394.63 41.7758 394.998 41.7966 395.369C41.8174 395.739 41.9605 396.093 42.2035 396.374C42.4466 396.655 42.7758 396.847 43.1398 396.921C89.4602 397.053 138.62 396.686 185.021 396.736C187.278 396.736 187.665 393.256 185.29 393.116Z" fill="#4C2884"/>
<path d="M81.346 219.759C83.0036 221.61 85.546 219.291 84.1684 217.72C80.8252 213.926 73.6628 205.311 70.3616 202.41C69.054 201.259 67.2816 203.06 68.2056 204.432C70.58 207.974 78.0728 216.108 81.346 219.759Z" fill="#4C2884"/>
<path d="M135.238 203.277C135.448 196.01 135.018 188.738 133.953 181.547C133.805 181.288 133.586 181.078 133.321 180.941C133.056 180.804 132.758 180.748 132.462 180.777C132.165 180.807 131.884 180.922 131.652 181.108C131.419 181.294 131.246 181.544 131.153 181.827C130.926 189.086 131.278 196.351 132.205 203.555C132.29 203.916 132.502 204.234 132.803 204.451C133.104 204.669 133.473 204.769 133.842 204.736C134.212 204.702 134.556 204.536 134.813 204.268C135.069 204 135.22 203.648 135.238 203.277Z" fill="#4C2884"/>
<path d="M137.692 311.69C137.692 314.014 137.074 329.442 137.908 331.467C138.056 331.722 138.268 331.934 138.523 332.081C138.778 332.229 139.068 332.306 139.363 332.306C139.657 332.306 139.947 332.229 140.202 332.081C140.458 331.934 140.67 331.722 140.817 331.467C141.688 329.244 140.7 314.751 140.585 311.69C140.434 310.052 137.692 310.019 137.692 311.69Z" fill="#4C2884"/>
<path d="M67.6457 261.076C101.652 197.121 179.167 203.841 207.674 255.893C173.995 307.293 108.016 315.074 67.4917 265.654C66.2261 264.114 64.6609 266.082 65.8117 267.695C101.439 317.255 177.562 310.787 208.995 260.695C210.019 259.422 210.617 257.859 210.704 256.227C210.791 254.596 210.363 252.978 209.48 251.603C174.914 192.406 88.3433 203.054 65.3049 259.561C64.6189 261.241 66.8253 262.621 67.6457 261.076Z" fill="#4C2884"/>
<path fill-rule="evenodd" clip-rule="evenodd" d="M377.591 196.11C368.833 197.79 361.107 216.923 370.77 225.88C376.687 231.365 403.933 231.597 420.451 230.895C420.569 232.916 421.003 234.907 421.736 236.794C422.394 238.474 424.365 239.006 423.875 235.977C423.607 234.251 423.485 232.506 423.508 230.76C426.851 230.595 429.492 230.393 431.197 230.2C430.752 233.931 430.111 237.636 429.276 241.299C428.814 243.307 431.068 243.682 431.833 241.767C434.177 235.71 435.125 229.202 434.607 222.727C433.611 208.455 393.59 193.036 377.591 196.11ZM380.349 203.648C376.32 204.569 375.368 210.69 375.001 213.963C374.371 219.563 370.801 215.643 371.658 210.718C372.313 207.005 375.485 200.957 380.114 201.559C380.382 201.545 380.646 201.633 380.851 201.807C381.055 201.98 381.186 202.226 381.216 202.493C381.246 202.759 381.173 203.028 381.012 203.242C380.851 203.457 380.614 203.602 380.349 203.648Z" fill="#191919"/>
<path fill-rule="evenodd" clip-rule="evenodd" d="M410.326 253.737C412.558 249.957 414.092 245.807 414.857 241.484C418.618 242.165 422.204 243.593 425.404 245.684C427.308 246.505 428.03 244.004 427.084 243.229C423.647 240.428 419.447 238.727 415.03 238.348C412.992 234.487 397.497 233.588 395.105 237.662C394.52 237.334 393.872 237.133 393.204 237.072C392.535 237.012 391.862 237.094 391.227 237.312C390.009 233.969 376.267 233.132 372.843 236.993C368.897 236.559 367.259 240.202 372.473 240.168C372.666 243.787 373.335 247.364 374.464 250.808C375.813 253.569 385.518 253.527 387.45 252.13C389.749 250.469 390.793 243.22 391.446 240.429C392.393 240.131 393.416 240.191 394.321 240.597C394.301 244.339 394.727 248.071 395.59 251.713C397.074 254.664 408.173 256.279 410.326 253.737ZM386.389 248.921C385.933 250.021 385.521 250.285 381.842 250.139C375.626 249.895 376.928 251.242 375.024 238.723C379.402 237.236 384.149 237.236 388.528 238.723C388.468 242.227 387.742 245.688 386.389 248.921ZM398.09 250.189C397.396 246.748 397.149 243.231 397.354 239.726C402.155 238.011 407.427 238.172 412.115 240.177C411.853 242.93 411.146 245.623 410.024 248.151C408.433 251.631 408.17 252.088 403.155 251.679C400.747 251.483 398.429 250.945 398.09 250.189Z" fill="#191919"/>
<path fill-rule="evenodd" clip-rule="evenodd" d="M400.477 247.955C401.001 249.842 404.677 250.063 403.82 244.611C403.33 241.509 398.957 242.483 400.477 247.955Z" fill="#191919"/>
<path fill-rule="evenodd" clip-rule="evenodd" d="M432.229 245.688C422.637 246.491 417.902 264.064 412.806 265.747C409.244 266.926 401.256 261.802 393.183 261.25C385.111 260.698 380.513 264.109 379.007 263.389C377.501 262.67 378.539 256.37 378.539 254.9C378.539 253.43 377.739 252.626 376.316 255.868C374.894 259.111 361.023 290.236 367.057 298.61C375.681 310.578 410.874 313.112 421.799 304.88C435.497 294.559 423.841 261.412 427.215 252.777C427.849 251.543 428.861 250.543 430.103 249.924C431.345 249.304 432.752 249.097 434.119 249.333C438.734 251.332 437.465 265.013 430.09 262.871C428.237 262.336 427.817 264.666 429.53 265.565C434.539 268.2 439.456 264.092 440.111 257.207C440.601 251.993 438.832 245.136 432.229 245.688ZM394.035 276.768C387.082 276.768 385.677 274.01 385.091 269.488C391.109 270.781 397.344 270.673 403.314 269.171C402.678 273.304 401.796 276.779 394.035 276.779V276.768Z" fill="#191919"/>
<path fill-rule="evenodd" clip-rule="evenodd" d="M390.717 247.412C389.43 250.38 388.465 253.478 387.841 256.652C387.15 260.418 392.159 260.429 394.981 259.995C396.661 259.738 396.969 257.823 395.13 257.688C393.777 257.587 391.12 257.52 390.868 257.053C391.099 253.929 391.7 250.843 392.657 247.86C393.046 246.628 391.249 246.147 390.717 247.412Z" fill="#191919"/>
<path fill-rule="evenodd" clip-rule="evenodd" d="M382.775 248.082C384.332 247.489 384.455 243.297 383.125 242.516C379.768 240.522 379.3 249.393 382.775 248.082Z" fill="#191919"/>
<path fill-rule="evenodd" clip-rule="evenodd" d="M410.139 100.598C280.645 100.698 143.176 100.399 15.6531 101.485C13.4803 101.502 13.4299 107.085 15.5187 107.099C144.613 107.908 280.578 106.9 410.005 106.8C412.329 106.797 412.379 100.598 410.139 100.598Z" fill="#191919"/>
<path fill-rule="evenodd" clip-rule="evenodd" d="M262.622 398.673C240.502 397.357 206.238 393.028 185.597 384.166C182.942 383.024 169.83 385.166 154.942 378.286C153.386 377.569 152.767 379.762 154.223 380.661C161.83 385.348 171.44 386.597 180.215 386.879C182.574 386.819 184.911 387.341 187.019 388.4C211.34 397.122 236.953 401.699 262.79 401.938C264.912 401.969 264.845 398.807 262.622 398.673Z" fill="#191919"/>
<path fill-rule="evenodd" clip-rule="evenodd" d="M514.114 392.325C513.683 389.968 510.505 390.799 510.903 393.143C512.271 401.556 511.728 410.168 509.315 418.343C503.6 438.259 486.784 435.064 469.95 434.289C452.282 433.477 427.95 431.783 412.684 431.08C412.347 431.035 412.006 431.124 411.733 431.327C411.461 431.53 411.278 431.832 411.224 432.168C411.171 432.503 411.25 432.847 411.446 433.125C411.642 433.403 411.938 433.594 412.273 433.656C426.959 435.988 458.33 437.369 470.552 437.948C487.268 438.744 505.916 440.972 512.14 421.619C515.203 412.166 515.881 402.103 514.114 392.325Z" fill="#191919"/>
<path fill-rule="evenodd" clip-rule="evenodd" d="M404.521 402.3C426.153 398.86 447.945 396.511 469.814 395.264C470.167 395.232 470.495 395.064 470.727 394.797C470.96 394.529 471.081 394.182 471.063 393.827C471.046 393.473 470.892 393.139 470.634 392.895C470.376 392.651 470.034 392.517 469.679 392.52C447.661 393.423 425.718 395.656 403.969 399.206C403.559 399.28 403.195 399.514 402.957 399.857C402.719 400.2 402.628 400.623 402.702 401.033C402.776 401.443 403.01 401.807 403.353 402.045C403.696 402.282 404.119 402.374 404.529 402.3H404.521Z" fill="#191919"/>
<path fill-rule="evenodd" clip-rule="evenodd" d="M174.231 378.087C174.464 378.085 174.694 378.037 174.908 377.944C175.122 377.851 175.315 377.716 175.475 377.548C175.636 377.379 175.76 377.179 175.842 376.961C175.924 376.743 175.96 376.511 175.95 376.278C175.94 376.045 175.883 375.817 175.783 375.607C175.682 375.397 175.541 375.209 175.366 375.055C175.192 374.901 174.988 374.783 174.767 374.709C174.546 374.636 174.312 374.607 174.08 374.626C163.687 374.959 158.442 372.008 151.582 367.136C150.496 366.366 149.342 367.724 150.182 368.816C155.065 375.27 166.458 378.389 174.231 378.087Z" fill="#191919"/>
<path fill-rule="evenodd" clip-rule="evenodd" d="M191.509 360.361C192.775 362.556 195.429 362.853 197.792 363.388C211.75 366.56 243.69 365.502 258.505 365.328C260.61 365.303 260.185 362.581 258.02 362.601C247.204 362.71 214.559 363.018 198.361 360.028C195.37 359.468 195.524 359.91 193.998 357.508C191.114 352.955 186.814 347.386 181.597 347.293C180.04 347.265 179.917 348.766 181.244 349.433C185.853 351.744 189.49 355.617 191.509 360.361Z" fill="#191919"/>
<path fill-rule="evenodd" clip-rule="evenodd" d="M182.292 360.984C175.063 358.862 164.846 355.457 159.226 348.197C157.546 346.018 156.118 347.712 156.952 349.468C160.452 356.838 173.265 363.468 180.621 363.748C184.689 363.919 183.558 361.354 182.292 360.984Z" fill="#191919"/>
<path fill-rule="evenodd" clip-rule="evenodd" d="M153.009 355.265C152.778 354.984 152.448 354.803 152.087 354.757C151.726 354.712 151.362 354.806 151.068 355.022C150.775 355.237 150.575 355.556 150.51 355.914C150.445 356.272 150.52 356.641 150.718 356.945C153.387 360.774 156.853 363.98 160.878 366.343C164.903 368.706 169.392 370.17 174.037 370.635C174.402 370.647 174.762 370.54 175.062 370.33C175.361 370.119 175.584 369.816 175.695 369.468C175.807 369.119 175.801 368.743 175.68 368.398C175.558 368.053 175.327 367.757 175.022 367.555C172.567 366.496 162.128 365.816 153.009 355.265Z" fill="#191919"/>
<path fill-rule="evenodd" clip-rule="evenodd" d="M475.344 440.948C470.329 440.296 412.159 441.584 409.465 440.48C406.772 439.377 392.839 360.028 389.199 354.814C385.559 349.601 270.902 352.908 265.688 355.918C260.475 358.928 277.692 449.564 282.152 451.398C286.131 453.03 469.366 450.762 475.352 450.446C481.339 450.129 480.359 441.6 475.344 440.948ZM330.886 414.872C315.243 416.174 310.34 390.512 325.972 387.961C333.392 386.748 339.93 393.328 341.316 401.432C341.604 403.011 341.556 404.633 341.175 406.193C340.794 407.752 340.088 409.214 339.104 410.482C338.12 411.75 336.879 412.797 335.463 413.553C334.047 414.309 332.488 414.759 330.886 414.872Z" fill="#191919"/>
</svg>
