<svg width="14" height="12" viewBox="0 0 14 12" fill="none" xmlns="http://www.w3.org/2000/svg">
<path fill-rule="evenodd" clip-rule="evenodd" d="M2.49999 3.00033C2.49999 1.43552 3.76852 0.166992 5.33332 0.166992C6.89813 0.166992 8.16666 1.43552 8.16666 3.00033C8.16666 4.56513 6.89813 5.83366 5.33332 5.83366C3.76852 5.83366 2.49999 4.56513 2.49999 3.00033ZM5.33332 1.16699C4.3208 1.16699 3.49999 1.9878 3.49999 3.00033C3.49999 4.01285 4.3208 4.83366 5.33332 4.83366C6.34585 4.83366 7.16666 4.01285 7.16666 3.00033C7.16666 1.9878 6.34585 1.16699 5.33332 1.16699Z" fill="white"/>
<path fill-rule="evenodd" clip-rule="evenodd" d="M0.166656 9.33366C0.166656 7.95295 1.28594 6.83366 2.66666 6.83366H2.8939C3.0169 6.83366 3.13912 6.85311 3.25604 6.89129L3.83305 7.0797C4.8079 7.39802 5.85874 7.39802 6.8336 7.0797L7.41061 6.89129C7.52753 6.85311 7.64975 6.83366 7.77274 6.83366H7.99999C9.3807 6.83366 10.5 7.95295 10.5 9.33366V10.1258C10.5 10.628 10.1361 11.0562 9.64048 11.1371C6.78792 11.6028 3.87872 11.6028 1.02617 11.1371C0.530579 11.0562 0.166656 10.628 0.166656 10.1258V9.33366ZM2.66666 7.83366C1.83823 7.83366 1.16666 8.50523 1.16666 9.33366V10.1258C1.16666 10.1379 1.1754 10.1482 1.1873 10.1501C3.93314 10.5984 6.73351 10.5984 9.47934 10.1501C9.49125 10.1482 9.49999 10.1379 9.49999 10.1258V9.33366C9.49999 8.50523 8.82842 7.83366 7.99999 7.83366H7.77274C7.75517 7.83366 7.73771 7.83644 7.72101 7.84189L7.144 8.0303C5.96745 8.41448 4.6992 8.41448 3.52265 8.0303L2.94564 7.84189C2.92893 7.83644 2.91147 7.83366 2.8939 7.83366H2.66666Z" fill="white"/>
<path d="M11 2.16699C11.2761 2.16699 11.5 2.39085 11.5 2.66699V3.83366H12.6667C12.9428 3.83366 13.1667 4.05752 13.1667 4.33366C13.1667 4.6098 12.9428 4.83366 12.6667 4.83366H11.5V6.00033C11.5 6.27647 11.2761 6.50033 11 6.50033C10.7238 6.50033 10.5 6.27647 10.5 6.00033V4.83366H9.33332C9.05718 4.83366 8.83332 4.6098 8.83332 4.33366C8.83332 4.05752 9.05718 3.83366 9.33332 3.83366H10.5V2.66699C10.5 2.39085 10.7238 2.16699 11 2.16699Z" fill="white"/>
</svg>
