<svg width="22" height="24" viewBox="0 0 22 24" fill="none" xmlns="http://www.w3.org/2000/svg">
<path d="M6.3125 6C6.3125 5.48223 6.73223 5.0625 7.25 5.0625H16C16.5178 5.0625 16.9375 5.48223 16.9375 6C16.9375 6.51777 16.5178 6.9375 16 6.9375H7.25C6.73223 6.9375 6.3125 6.51777 6.3125 6Z" fill="white"/>
<path d="M7.25 8.8125C6.73223 8.8125 6.3125 9.23223 6.3125 9.75C6.3125 10.2678 6.73223 10.6875 7.25 10.6875H13.5C14.0178 10.6875 14.4375 10.2678 14.4375 9.75C14.4375 9.23223 14.0178 8.8125 13.5 8.8125H7.25Z" fill="white"/>
<path fill-rule="evenodd" clip-rule="evenodd" d="M6.625 0.0625C3.34581 0.0625 0.6875 2.72081 0.6875 6V18.5C0.6875 21.0888 2.78616 23.1875 5.375 23.1875H19.125C20.3331 23.1875 21.3125 22.2081 21.3125 21V2.25C21.3125 1.04188 20.3331 0.0625 19.125 0.0625H6.625ZM19.4375 13.8125V2.25C19.4375 2.07741 19.2976 1.9375 19.125 1.9375H6.625C4.38134 1.9375 2.5625 3.75634 2.5625 6V14.7497C3.34593 14.1612 4.31974 13.8125 5.375 13.8125H19.4375ZM19.4375 15.6875H5.375C3.8217 15.6875 2.5625 16.9467 2.5625 18.5C2.5625 20.0533 3.8217 21.3125 5.375 21.3125H19.125C19.2976 21.3125 19.4375 21.1726 19.4375 21V15.6875Z" fill="white"/>
</svg>
