<svg width="32" height="32" viewBox="0 0 32 32" fill="none" xmlns="http://www.w3.org/2000/svg">
<g clip-path="url(#clip0_42_19)">
<path d="M26.5067 24.6266C27.1467 23.5999 27.5067 22.4 27.4267 21.08C27.2533 18.2133 24.9733 15.7866 22.1333 15.4799C18.5067 15.08 15.44 17.8933 15.44 21.44C15.44 24.76 18.12 27.4399 21.4267 27.4399C22.6 27.4399 23.6933 27.0933 24.6133 26.5066L27.8267 29.72C28.3467 30.24 29.2 30.24 29.72 29.72C30.24 29.2 30.24 28.3466 29.72 27.8266L26.5067 24.6266ZM21.44 24.7733C19.6 24.7733 18.1067 23.28 18.1067 21.44C18.1067 19.6 19.6 18.1066 21.44 18.1066C23.28 18.1066 24.7733 19.6 24.7733 21.44C24.7733 23.28 23.28 24.7733 21.44 24.7733ZM20.96 13.44C19.9733 13.4666 19.0267 13.68 18.16 14.04L17.4267 12.9333L13.32 19.6133C12.84 20.3866 11.76 20.4666 11.1733 19.7866L8.34668 16.4933L4.26668 23.0266C3.85334 23.68 2.97334 23.8533 2.34668 23.4C1.78668 22.9866 1.62668 22.2133 2.00001 21.6133L7.04001 13.5466C7.52001 12.7866 8.60001 12.7066 9.18668 13.3866L12 16.6666L16.24 9.77328C16.7467 8.94662 17.9467 8.91995 18.48 9.73328L20.96 13.44ZM24.4133 14.1066C23.56 13.7333 22.64 13.5066 21.68 13.4533L27.7333 3.86662C28.1467 3.21328 29.0267 3.05328 29.64 3.50662C30.2133 3.91995 30.36 4.70662 29.9867 5.29328L24.4133 14.1066Z" fill="#9A4CEC"/>
</g>
<defs>
<clipPath id="clip0_42_19">
<rect width="32" height="32" fill="white"/>
</clipPath>
</defs>
</svg>
