<svg width="48" height="48" viewBox="0 0 48 48" fill="none" xmlns="http://www.w3.org/2000/svg">
<path fill-rule="evenodd" clip-rule="evenodd" d="M22.4877 15.7877C23.4723 14.8031 24.8076 14.25 26.2 14.25H28.9C29.3142 14.25 29.65 14.5858 29.65 15V18.6C29.65 19.0142 29.3142 19.35 28.9 19.35H26.2C26.1602 19.35 26.1221 19.3658 26.0939 19.3939C26.0658 19.4221 26.05 19.4602 26.05 19.5V21.45H28.9C29.131 21.45 29.349 21.5564 29.4912 21.7384C29.6333 21.9205 29.6836 22.1578 29.6276 22.3819L28.7276 25.9819C28.6441 26.3158 28.3442 26.55 28 26.55H26.05V33C26.05 33.4142 25.7142 33.75 25.3 33.75H21.7C21.2858 33.75 20.95 33.4142 20.95 33V26.55H19C18.5858 26.55 18.25 26.2142 18.25 25.8V22.2C18.25 21.7858 18.5858 21.45 19 21.45H20.95V19.5C20.95 18.1076 21.5031 16.7723 22.4877 15.7877ZM26.2 15.75C25.2054 15.75 24.2516 16.1451 23.5483 16.8483C22.8451 17.5516 22.45 18.5054 22.45 19.5V22.2C22.45 22.6142 22.1142 22.95 21.7 22.95H19.75V25.05H21.7C22.1142 25.05 22.45 25.3858 22.45 25.8V32.25H24.55V25.8C24.55 25.3858 24.8858 25.05 25.3 25.05H27.4144L27.9394 22.95H25.3C24.8858 22.95 24.55 22.6142 24.55 22.2V19.5C24.55 19.0624 24.7238 18.6427 25.0333 18.3333C25.3427 18.0238 25.7624 17.85 26.2 17.85H28.15V15.75H26.2Z" fill="black"/>
<rect x="0.5" y="0.5" width="47" height="47" rx="23.5" stroke="#CECECE" stroke-opacity="0.25"/>
</svg>
