<svg width="463" height="380" viewBox="0 0 463 380" fill="none" xmlns="http://www.w3.org/2000/svg">
<path opacity="0.05" d="M230.804 -21.4721C273.424 -24.9483 298.973 24.8393 271.296 57.4363L20.5741 352.727C-1.56745 378.805 -43.1031 374.01 -58.7214 343.574L-194.091 79.774C-209.709 49.338 -189.384 12.7995 -155.287 10.0185L230.804 -21.4721Z" fill="white"/>
<path opacity="0.1" d="M118.625 -20.3523C159.017 -20.2717 181.254 26.6198 155.757 57.9471L-2.04396 251.834C-24.3194 279.204 -67.5214 273.987 -82.6423 242.102L-174.827 47.7165C-189.948 15.8317 -166.65 -20.9216 -131.362 -20.8512L118.625 -20.3523Z" fill="white"/>
<path opacity="0.15" d="M22.5346 -21.2797C63.7195 -21.9282 86.5387 26.1893 59.9753 57.6695L-53.6309 192.304C-76.1503 218.992 -118.723 213.468 -133.686 181.917L-196.22 50.0557C-211.182 18.5046 -188.52 -17.9562 -153.605 -18.506L22.5346 -21.2797Z" fill="white"/>
</svg>
