<svg width="48" height="48" viewBox="0 0 48 48" fill="none" xmlns="http://www.w3.org/2000/svg">
<path fill-rule="evenodd" clip-rule="evenodd" d="M24 14.25C18.6155 14.25 14.25 18.6155 14.25 24C14.25 29.3845 18.6155 33.75 24 33.75C29.3845 33.75 33.75 29.3845 33.75 24C33.75 23.348 33.6832 22.6728 33.5607 22.0543C33.4911 21.7031 33.183 21.45 32.8249 21.45H24C23.5858 21.45 23.25 21.7858 23.25 22.2V25.8C23.25 26.2142 23.5858 26.55 24 26.55H27.8828C27.6018 26.978 27.2524 27.3568 26.8502 27.6706C26.8443 27.6743 26.8386 27.678 26.8328 27.6819L26.8315 27.6828L26.8325 27.6843C26.0486 28.2899 25.0665 28.65 24 28.65C21.4321 28.65 19.35 26.5679 19.35 24C19.35 21.4321 21.4321 19.35 24 19.35C25.1837 19.35 26.2608 19.7957 27.084 20.5279C27.3807 20.7919 27.8319 20.7788 28.1128 20.4979L30.6584 17.9522C30.8023 17.8083 30.8816 17.6122 30.878 17.4087C30.8744 17.2052 30.7883 17.012 30.6394 16.8732C28.9004 15.2525 26.5699 14.25 24 14.25ZM27.202 29.2492C26.2705 29.8203 25.1746 30.15 24 30.15C21.692 30.15 19.6807 28.8784 18.6288 26.9975L16.9517 28.2897C18.4002 30.6644 21.0151 32.25 24 32.25C25.8212 32.25 27.5046 31.6598 28.8695 30.6602L27.202 29.2492ZM30.0054 29.6564C31.3971 28.1795 32.25 26.1893 32.25 24C32.25 23.6525 32.2275 23.2961 32.1853 22.95H24.75V25.05H29.0864C29.3299 25.05 29.5583 25.1683 29.6988 25.3671C29.8394 25.566 29.8746 25.8208 29.7933 26.0503C29.4929 26.8989 29.0119 27.6627 28.3961 28.2946L30.0054 29.6564ZM17.0196 19.6009C18.481 17.287 21.0611 15.75 24 15.75C25.8918 15.75 27.6306 16.3916 29.0229 17.4664L27.5236 18.9657C26.5272 18.2652 25.3133 17.85 24 17.85C21.7561 17.85 19.7928 19.0519 18.7187 20.847L17.0196 19.6009ZM16.3301 20.9554C15.9558 21.8974 15.75 22.9247 15.75 24C15.75 25.0258 15.9373 26.0079 16.2795 26.914L18.0475 25.5518C17.9186 25.0561 17.85 24.5361 17.85 24C17.85 23.3936 17.9378 22.8078 18.1013 22.2544L16.3301 20.9554Z" fill="black"/>
<rect x="0.5" y="0.5" width="47" height="47" rx="23.5" stroke="#CECECE" stroke-opacity="0.25"/>
</svg>
