<svg width="40" height="40" viewBox="0 0 40 40" fill="none" xmlns="http://www.w3.org/2000/svg">
<rect x="0.5" y="0.5" width="39" height="39" rx="19.5" fill="white"/>
<path fill-rule="evenodd" clip-rule="evenodd" d="M27.75 20C27.75 19.5858 27.4142 19.25 27 19.25H13C12.5858 19.25 12.25 19.5858 12.25 20C12.25 20.4142 12.5858 20.75 13 20.75H27C27.4142 20.75 27.75 20.4142 27.75 20Z" fill="black"/>
<path fill-rule="evenodd" clip-rule="evenodd" d="M27.75 15C27.75 14.5858 27.4142 14.25 27 14.25H13C12.5858 14.25 12.25 14.5858 12.25 15C12.25 15.4142 12.5858 15.75 13 15.75H27C27.4142 15.75 27.75 15.4142 27.75 15Z" fill="black"/>
<path fill-rule="evenodd" clip-rule="evenodd" d="M27.75 25C27.75 24.5858 27.4142 24.25 27 24.25H13C12.5858 24.25 12.25 24.5858 12.25 25C12.25 25.4142 12.5858 25.75 13 25.75H27C27.4142 25.75 27.75 25.4142 27.75 25Z" fill="black"/>
<rect x="0.5" y="0.5" width="39" height="39" rx="19.5" stroke="#F5F5F5"/>
</svg>
