<svg width="24" height="24" viewBox="0 0 24 24" fill="none" xmlns="http://www.w3.org/2000/svg">
<path fill-rule="evenodd" clip-rule="evenodd" d="M13.5578 5.53277C12.6873 4.69741 11.3127 4.69741 10.4422 5.53277L5.81574 9.9721C5.70239 10.0809 5.62614 10.2226 5.5978 10.3771C5.04367 13.3989 5.00277 16.4926 5.47681 19.528L5.58933 20.2485H8.56579V14.0372C8.56579 13.623 8.90158 13.2872 9.31579 13.2872H14.6842C15.0984 13.2872 15.4342 13.623 15.4342 14.0372V20.2485H18.4107L18.5232 19.528C18.9972 16.4926 18.9563 13.3989 18.4022 10.3771C18.3739 10.2226 18.2976 10.0809 18.1843 9.9721L13.5578 5.53277ZM9.40363 4.45045C10.8546 3.05818 13.1454 3.05818 14.5964 4.45045L19.2228 8.88978C19.5634 9.21658 19.7925 9.64227 19.8776 10.1065C20.4621 13.2942 20.5053 16.5575 20.0052 19.7595L19.8245 20.9169C19.7497 21.3956 19.3374 21.7485 18.8529 21.7485H14.6842C14.27 21.7485 13.9342 21.4127 13.9342 20.9985V14.7872H10.0658V20.9985C10.0658 21.4127 9.73 21.7485 9.31579 21.7485H5.14706C4.66258 21.7485 4.25029 21.3956 4.17554 20.9169L3.99478 19.7595C3.49473 16.5575 3.53788 13.2942 4.12241 10.1065C4.20754 9.64227 4.43662 9.21658 4.77719 8.88978L9.40363 4.45045Z" fill="black"/>
</svg>
