<svg width="30" height="30" viewBox="0 0 30 30" fill="none" xmlns="http://www.w3.org/2000/svg">
<path fill-rule="evenodd" clip-rule="evenodd" d="M23.75 26.8748H7.5C5.08375 26.8748 3.125 24.916 3.125 22.4998V6.17876C3.125 4.84432 4.4448 3.99832 5.60612 4.40151C5.77203 4.45911 5.9347 4.5422 6.08982 4.65301L6.30863 4.8093C7.39366 5.58432 8.86114 5.58089 9.94923 4.80369C11.4704 3.71713 13.5296 3.71713 15.0508 4.80369C16.1389 5.58089 17.6063 5.58432 18.6914 4.8093L18.9102 4.65301C20.1512 3.76657 21.875 4.65368 21.875 6.17876V15.6248H26.25C26.7678 15.6248 27.1875 16.0445 27.1875 16.5623V23.4373C27.1875 25.3357 25.6485 26.8748 23.75 26.8748ZM22.1875 17.4998V23.4373C22.1875 24.3002 22.8871 24.9998 23.75 24.9998C24.6129 24.9998 25.3125 24.3002 25.3125 23.4373V17.4998H22.1875ZM16.875 12.1873C16.875 11.6695 16.4553 11.2498 15.9375 11.2498H8.4375C7.91973 11.2498 7.5 11.6695 7.5 12.1873C7.5 12.705 7.91973 13.1248 8.4375 13.1248H15.9375C16.4553 13.1248 16.875 12.705 16.875 12.1873ZM15.625 15.9373C15.625 15.4195 15.2053 14.9998 14.6875 14.9998H8.4375C7.91973 14.9998 7.5 15.4195 7.5 15.9373C7.5 16.455 7.91973 16.8748 8.4375 16.8748H14.6875C15.2053 16.8748 15.625 16.455 15.625 15.9373ZM15.9375 18.7498C16.4553 18.7498 16.875 19.1695 16.875 19.6873C16.875 20.205 16.4553 20.6248 15.9375 20.6248H8.4375C7.91973 20.6248 7.5 20.205 7.5 19.6873C7.5 19.1695 7.91973 18.7498 8.4375 18.7498H15.9375Z" fill="white"/>
</svg>
