<svg width="16" height="8" viewBox="0 0 16 8" fill="none" xmlns="http://www.w3.org/2000/svg">
<path d="M4.66668 2.6665C3.9303 2.6665 3.33334 3.26346 3.33334 3.99984C3.33334 4.73622 3.9303 5.33317 4.66668 5.33317C5.40306 5.33317 6.00001 4.73622 6.00001 3.99984C6.00001 3.26346 5.40306 2.6665 4.66668 2.6665Z" fill="white"/>
<path fill-rule="evenodd" clip-rule="evenodd" d="M4.66668 0.166504C2.54959 0.166504 0.833344 1.88275 0.833344 3.99984C0.833344 6.11693 2.54959 7.83317 4.66668 7.83317C6.12039 7.83317 7.38417 7.02403 8.03388 5.83317H10.1667V7.33317C10.1667 7.60931 10.3905 7.83317 10.6667 7.83317H13C13.2762 7.83317 13.5 7.60931 13.5 7.33317V5.83317H14.6667C14.9428 5.83317 15.1667 5.60931 15.1667 5.33317V3.33317C15.1667 2.68884 14.6443 2.1665 14 2.1665H8.03388C7.38417 0.975645 6.12039 0.166504 4.66668 0.166504ZM1.83334 3.99984C1.83334 2.43503 3.10187 1.1665 4.66668 1.1665C5.82775 1.1665 6.8268 1.86496 7.26447 2.86669C7.34404 3.0488 7.52391 3.1665 7.72265 3.1665H14C14.0921 3.1665 14.1667 3.24112 14.1667 3.33317V4.83317H13C12.7239 4.83317 12.5 5.05703 12.5 5.33317V6.83317H11.1667V5.33317C11.1667 5.05703 10.9428 4.83317 10.6667 4.83317H7.72265C7.52391 4.83317 7.34404 4.95087 7.26447 5.13299C6.8268 6.13471 5.82775 6.83317 4.66668 6.83317C3.10187 6.83317 1.83334 5.56464 1.83334 3.99984Z" fill="white"/>
</svg>
