<svg width="20" height="16" viewBox="0 0 20 16" fill="none" xmlns="http://www.w3.org/2000/svg">
<path d="M5.28918 0.907491C8.42382 0.635003 11.5762 0.635003 14.7108 0.907491L16.2211 1.03877C17.2264 1.12617 18.0875 1.72584 18.5337 2.58361C18.5907 2.69335 18.5479 2.82621 18.4428 2.89132L12.1768 6.77024C10.833 7.60216 9.13844 7.61962 7.77772 6.81556L1.46989 3.0882C1.36798 3.02798 1.3212 2.90402 1.36713 2.79492C1.77529 1.82536 2.69292 1.13318 3.77895 1.03877L5.28918 0.907491Z" fill="black"/>
<path d="M1.362 4.76676C1.20603 4.6746 1.00703 4.77377 0.988851 4.95402C0.735115 7.46965 0.796526 10.0091 1.17308 12.5132C1.3716 13.8333 2.44901 14.8454 3.77895 14.961L5.28918 15.0923C8.42382 15.3647 11.5762 15.3647 14.7108 15.0923L16.2211 14.961C17.551 14.8454 18.6284 13.8333 18.8269 12.5132C19.2145 9.93613 19.2682 7.32162 18.9882 4.73415C18.9685 4.55264 18.7662 4.45529 18.6109 4.55139L12.9664 8.04564C11.1482 9.17118 8.8556 9.19479 7.01462 8.10695L1.362 4.76676Z" fill="black"/>
</svg>
