<svg width="16" height="16" viewBox="0 0 16 16" fill="none" xmlns="http://www.w3.org/2000/svg">
<path fill-rule="evenodd" clip-rule="evenodd" d="M8.66668 2.00016C8.66668 1.63197 8.3682 1.3335 8.00001 1.3335C7.63182 1.3335 7.33334 1.63197 7.33334 2.00016V2.50016H6.96173C5.47835 2.50016 4.25062 3.6535 4.15802 5.13399L4.01069 7.48963C3.95451 8.38776 3.65299 9.25326 3.13895 9.99188C2.67449 10.6593 3.08797 11.581 3.89526 11.6778L6.16668 11.9504V12.6668C6.16668 13.6794 6.98749 14.5002 8.00001 14.5002C9.01253 14.5002 9.83334 13.6794 9.83334 12.6668V11.9504L12.1048 11.6778C12.912 11.581 13.3255 10.6593 12.8611 9.99188C12.347 9.25326 12.0455 8.38776 11.9893 7.48963L11.842 5.13399C11.7494 3.6535 10.5217 2.50016 9.03828 2.50016H8.66668V2.00016ZM6.96173 3.50016C6.0064 3.50016 5.21571 4.24294 5.15607 5.19642L5.00874 7.55205C4.94114 8.63281 4.5783 9.6743 3.95974 10.5631C3.92617 10.6113 3.95605 10.678 4.0144 10.685L6.50618 10.984C7.4985 11.1031 8.50151 11.1031 9.49384 10.984L11.9856 10.685C12.044 10.678 12.0738 10.6113 12.0403 10.5631C11.4217 9.6743 11.0589 8.63281 10.9913 7.55205L10.8439 5.19642C10.7843 4.24294 9.99362 3.50016 9.03828 3.50016H6.96173ZM8.00001 13.5002C7.53977 13.5002 7.16668 13.1271 7.16668 12.6668V12.1668H8.83334V12.6668C8.83334 13.1271 8.46025 13.5002 8.00001 13.5002Z" fill="white"/>
</svg>
