<svg width="32" height="32" viewBox="0 0 32 32" fill="none" xmlns="http://www.w3.org/2000/svg">
<path d="M5.33333 9.33362C5.33333 8.60028 5.93333 8.00028 6.66667 8.00028H28C28.7333 8.00028 29.3333 7.40029 29.3333 6.66695C29.3333 5.93362 28.7333 5.33362 28 5.33362H5.33333C3.86667 5.33362 2.66667 6.53362 2.66667 8.00028V22.667H2C0.893333 22.667 0 23.5603 0 24.667C0 25.7736 0.893333 26.667 2 26.667H16.6667C17.7733 26.667 18.6667 25.7736 18.6667 24.667C18.6667 23.5603 17.7733 22.667 16.6667 22.667H5.33333V9.33362ZM30.6667 10.667H22.6667C21.9333 10.667 21.3333 11.267 21.3333 12.0003V25.3336C21.3333 26.067 21.9333 26.667 22.6667 26.667H30.6667C31.4 26.667 32 26.067 32 25.3336V12.0003C32 11.267 31.4 10.667 30.6667 10.667ZM29.3333 22.667H24V13.3336H29.3333V22.667Z" fill="#9A4CEC"/>
</svg>
