<svg width="8" height="8" viewBox="0 0 8 8" fill="none" xmlns="http://www.w3.org/2000/svg">
<path d="M4.50008 0.666504C4.50008 0.390362 4.27622 0.166504 4.00008 0.166504C3.72394 0.166504 3.50008 0.390362 3.50008 0.666504V3.49984H0.666748C0.390606 3.49984 0.166748 3.72369 0.166748 3.99984C0.166748 4.27598 0.390606 4.49984 0.666748 4.49984H3.50008V7.33317C3.50008 7.60931 3.72394 7.83317 4.00008 7.83317C4.27622 7.83317 4.50008 7.60931 4.50008 7.33317V4.49984H7.33341C7.60956 4.49984 7.83341 4.27598 7.83341 3.99984C7.83341 3.72369 7.60956 3.49984 7.33341 3.49984H4.50008V0.666504Z" fill="white"/>
</svg>
