<svg width="12" height="12" viewBox="0 0 12 12" fill="none" xmlns="http://www.w3.org/2000/svg">
<path fill-rule="evenodd" clip-rule="evenodd" d="M3.16668 2.99984C3.16668 1.43503 4.4352 0.166504 6.00001 0.166504C7.56482 0.166504 8.83334 1.43503 8.83334 2.99984C8.83334 4.56464 7.56482 5.83317 6.00001 5.83317C4.4352 5.83317 3.16668 4.56464 3.16668 2.99984ZM6.00001 1.1665C4.98749 1.1665 4.16668 1.98732 4.16668 2.99984C4.16668 4.01236 4.98749 4.83317 6.00001 4.83317C7.01253 4.83317 7.83334 4.01236 7.83334 2.99984C7.83334 1.98732 7.01253 1.1665 6.00001 1.1665Z" fill="white"/>
<path fill-rule="evenodd" clip-rule="evenodd" d="M3.33334 7.83317C2.50492 7.83317 1.83334 8.50474 1.83334 9.33317V10.1254C1.83334 10.1374 1.84209 10.1477 1.85399 10.1496C4.59983 10.5979 7.40019 10.5979 10.146 10.1496C10.1579 10.1477 10.1667 10.1374 10.1667 10.1254V9.33317C10.1667 8.50474 9.4951 7.83317 8.66668 7.83317H8.43943C8.42186 7.83317 8.4044 7.83595 8.3877 7.8414L7.81069 8.02981C6.63414 8.41399 5.36588 8.41399 4.18933 8.02981L3.61232 7.8414C3.59562 7.83595 3.57816 7.83317 3.56059 7.83317H3.33334ZM0.833344 9.33317C0.833344 7.95246 1.95263 6.83317 3.33334 6.83317H3.56059C3.68358 6.83317 3.80581 6.85262 3.92273 6.8908L4.49973 7.07921C5.47459 7.39753 6.52543 7.39753 7.50029 7.07921L8.0773 6.8908C8.19421 6.85262 8.31644 6.83317 8.43943 6.83317H8.66668C10.0474 6.83317 11.1667 7.95246 11.1667 9.33317V10.1254C11.1667 10.6275 10.8028 11.0557 10.3072 11.1366C7.45461 11.6023 4.54541 11.6023 1.69286 11.1366C1.19727 11.0557 0.833344 10.6275 0.833344 10.1254V9.33317Z" fill="white"/>
</svg>
