<svg width="28" height="28" viewBox="0 0 28 28" fill="none" xmlns="http://www.w3.org/2000/svg">
<path d="M23.3333 8.66669H4.66667C3.93334 8.66669 3.33334 8.06669 3.33334 7.33335C3.33334 6.60002 3.93334 6.00002 4.66667 6.00002H23.3333C24.0667 6.00002 24.6667 6.60002 24.6667 7.33335C24.6667 8.06669 24.0667 8.66669 23.3333 8.66669ZM20.6667 0.666687H7.33334C6.6 0.666687 6 1.26669 6 2.00002C6 2.73335 6.6 3.33335 7.33334 3.33335H20.6667C21.4 3.33335 22 2.73335 22 2.00002C22 1.26669 21.4 0.666687 20.6667 0.666687ZM27.3333 14V24.6667C27.3333 26.1334 26.1333 27.3334 24.6667 27.3334H3.33334C1.86667 27.3334 0.666672 26.1334 0.666672 24.6667V14C0.666672 12.5334 1.86667 11.3334 3.33334 11.3334H24.6667C26.1333 11.3334 27.3333 12.5334 27.3333 14ZM18.2533 18.7467L11.3333 14.9734V23.68L18.2533 19.92C18.72 19.6667 18.72 19 18.2533 18.7467Z" fill="#9A4CEC"/>
</svg>
