<svg width="100" height="100" viewBox="0 0 100 100" fill="none" xmlns="http://www.w3.org/2000/svg">
<g filter="url(#filter0_d_1433_1138)">
<rect x="10" y="8" width="80" height="80" rx="40" fill="white"/>
<g clip-path="url(#clip0_1433_1138)">
<path d="M50.0001 34.667C42.6401 34.667 36.6667 40.6403 36.6667 48.0003C36.6667 55.3603 42.6401 61.3337 50.0001 61.3337C57.3601 61.3337 63.3334 55.3603 63.3334 48.0003C63.3334 40.6403 57.3601 34.667 50.0001 34.667ZM48.6667 58.5737C43.4001 57.9203 39.3334 53.4403 39.3334 48.0003C39.3334 47.1737 39.4401 46.387 39.6134 45.6137L46.0001 52.0003V53.3337C46.0001 54.8003 47.2001 56.0003 48.6667 56.0003V58.5737ZM57.8667 55.187C57.5201 54.107 56.5334 53.3337 55.3334 53.3337H54.0001V49.3337C54.0001 48.6003 53.4001 48.0003 52.6667 48.0003H44.6667V45.3337H47.3334C48.0667 45.3337 48.6667 44.7337 48.6667 44.0003V41.3337H51.3334C52.8001 41.3337 54.0001 40.1337 54.0001 38.667V38.1203C57.9067 39.707 60.6667 43.5337 60.6667 48.0003C60.6667 50.7737 59.6001 53.2937 57.8667 55.187Z" fill="#9A4CEC"/>
</g>
</g>
<defs>
<filter id="filter0_d_1433_1138" x="0" y="0" width="100" height="100" filterUnits="userSpaceOnUse" color-interpolation-filters="sRGB">
<feFlood flood-opacity="0" result="BackgroundImageFix"/>
<feColorMatrix in="SourceAlpha" type="matrix" values="0 0 0 0 0 0 0 0 0 0 0 0 0 0 0 0 0 0 127 0" result="hardAlpha"/>
<feOffset dy="2"/>
<feGaussianBlur stdDeviation="5"/>
<feComposite in2="hardAlpha" operator="out"/>
<feColorMatrix type="matrix" values="0 0 0 0 0.808321 0 0 0 0 0.808321 0 0 0 0 0.808321 0 0 0 0.25 0"/>
<feBlend mode="normal" in2="BackgroundImageFix" result="effect1_dropShadow_1433_1138"/>
<feBlend mode="normal" in="SourceGraphic" in2="effect1_dropShadow_1433_1138" result="shape"/>
</filter>
<clipPath id="clip0_1433_1138">
<rect width="32" height="32" fill="white" transform="translate(34 32)"/>
</clipPath>
</defs>
</svg>

