<svg width="100" height="100" viewBox="0 0 100 100" fill="none" xmlns="http://www.w3.org/2000/svg">
<g filter="url(#filter0_d_1314_5117)">
<rect x="10" y="8" width="80" height="80" rx="40" fill="white"/>
<g clip-path="url(#clip0_1314_5117)">
<path d="M59.3333 36H40.6667C39.2 36 38 37.2 38 38.6667V57.3333C38 58.8 39.2 60 40.6667 60H59.3333C60.8 60 62 58.8 62 57.3333V38.6667C62 37.2 60.8 36 59.3333 36ZM44.6667 54.6667C43.9333 54.6667 43.3333 54.0667 43.3333 53.3333V49.3333C43.3333 48.6 43.9333 48 44.6667 48C45.4 48 46 48.6 46 49.3333V53.3333C46 54.0667 45.4 54.6667 44.6667 54.6667ZM50 54.6667C49.2667 54.6667 48.6667 54.0667 48.6667 53.3333V52C48.6667 51.2667 49.2667 50.6667 50 50.6667C50.7333 50.6667 51.3333 51.2667 51.3333 52V53.3333C51.3333 54.0667 50.7333 54.6667 50 54.6667ZM50 48C49.2667 48 48.6667 47.4 48.6667 46.6667C48.6667 45.9333 49.2667 45.3333 50 45.3333C50.7333 45.3333 51.3333 45.9333 51.3333 46.6667C51.3333 47.4 50.7333 48 50 48ZM55.3333 54.6667C54.6 54.6667 54 54.0667 54 53.3333V42.6667C54 41.9333 54.6 41.3333 55.3333 41.3333C56.0667 41.3333 56.6667 41.9333 56.6667 42.6667V53.3333C56.6667 54.0667 56.0667 54.6667 55.3333 54.6667Z" fill="#9A4CEC"/>
</g>
</g>
<defs>
<filter id="filter0_d_1314_5117" x="0" y="0" width="100" height="100" filterUnits="userSpaceOnUse" color-interpolation-filters="sRGB">
<feFlood flood-opacity="0" result="BackgroundImageFix"/>
<feColorMatrix in="SourceAlpha" type="matrix" values="0 0 0 0 0 0 0 0 0 0 0 0 0 0 0 0 0 0 127 0" result="hardAlpha"/>
<feOffset dy="2"/>
<feGaussianBlur stdDeviation="5"/>
<feComposite in2="hardAlpha" operator="out"/>
<feColorMatrix type="matrix" values="0 0 0 0 0.808321 0 0 0 0 0.808321 0 0 0 0 0.808321 0 0 0 0.25 0"/>
<feBlend mode="normal" in2="BackgroundImageFix" result="effect1_dropShadow_1314_5117"/>
<feBlend mode="normal" in="SourceGraphic" in2="effect1_dropShadow_1314_5117" result="shape"/>
</filter>
<clipPath id="clip0_1314_5117">
<rect width="32" height="32" fill="white" transform="translate(34 32)"/>
</clipPath>
</defs>
</svg>
