<svg width="32" height="32" viewBox="0 0 32 32" fill="none" xmlns="http://www.w3.org/2000/svg">
<g clip-path="url(#clip0_42_15)">
<path d="M16 2.66663C8.64 2.66663 2.66667 8.63996 2.66667 16C2.66667 23.36 8.64 29.3333 16 29.3333C23.36 29.3333 29.3333 23.36 29.3333 16C29.3333 8.63996 23.36 2.66663 16 2.66663ZM14.6667 26.5733C9.4 25.92 5.33333 21.44 5.33333 16C5.33333 15.1733 5.44 14.3866 5.61333 13.6133L12 20V21.3333C12 22.8 13.2 24 14.6667 24V26.5733ZM23.8667 23.1866C23.52 22.1066 22.5333 21.3333 21.3333 21.3333H20V17.3333C20 16.6 19.4 16 18.6667 16H10.6667V13.3333H13.3333C14.0667 13.3333 14.6667 12.7333 14.6667 12V9.33329H17.3333C18.8 9.33329 20 8.13329 20 6.66663V6.11996C23.9067 7.70663 26.6667 11.5333 26.6667 16C26.6667 18.7733 25.6 21.2933 23.8667 23.1866Z" fill="#9A4CEC"/>
</g>
<defs>
<clipPath id="clip0_42_15">
<rect width="32" height="32" fill="white"/>
</clipPath>
</defs>
</svg>
