<svg width="21" height="10" viewBox="0 0 21 10" fill="none" xmlns="http://www.w3.org/2000/svg">
<path d="M1.96001 4.38C2.24001 2.91 3.62001 1.9 5.12001 1.9H8.05001C8.57001 1.9 9.00001 1.47 9.00001 0.95C9.00001 0.43 8.57001 0 8.05001 0H5.22001C2.61001 0 0.280014 1.91 0.0300143 4.51C-0.259986 7.49 2.08001 10 5.00001 10H8.05001C8.57001 10 9.00001 9.57 9.00001 9.05C9.00001 8.53 8.57001 8.1 8.05001 8.1H5.00001C3.09001 8.1 1.58001 6.36 1.96001 4.38ZM7.00001 6H13C13.55 6 14 5.55 14 5C14 4.45 13.55 4 13 4H7.00001C6.45001 4 6.00001 4.45 6.00001 5C6.00001 5.55 6.45001 6 7.00001 6ZM14.78 0H11.95C11.43 0 11 0.43 11 0.95C11 1.47 11.43 1.9 11.95 1.9H14.88C16.38 1.9 17.76 2.91 18.04 4.38C18.42 6.36 16.91 8.1 15 8.1H11.95C11.43 8.1 11 8.53 11 9.05C11 9.57 11.43 10 11.95 10H15C17.92 10 20.26 7.49 19.98 4.51C19.73 1.91 17.39 0 14.78 0Z" fill="#FEC431"/>
</svg>
